<svg fill="none" height="38" viewBox="0 0 25 38" width="25" xmlns="http://www.w3.org/2000/svg">
    <path
        d="M6 38C-4.47673 38 -13 29.4767 -13 19C-13 8.52327 -4.47673 0 6 0C16.4767 0 25 8.52327 25 19C25 29.4767 16.4767 38 6 38Z"
        fill="#FE0050" />
    <path d="M6 0V38C16.4767 38 25 29.4767 25 19C25 8.52327 16.4767 0 6 0Z" fill="#E10555" />
    <path
        d="M6 31.6914C-0.998016 31.6914 -6.69141 25.998 -6.69141 19C-6.69141 12.002 -0.998016 6.30859 6 6.30859C12.998 6.30859 18.6914 12.002 18.6914 19C18.6914 25.998 12.998 31.6914 6 31.6914Z"
        fill="#D9E7F3" />
    <path
        d="M6 6.30859V31.6914C12.998 31.6914 18.6914 25.998 18.6914 19C18.6914 12.002 12.998 6.30859 6 6.30859Z"
        fill="#C8D4DF" />
    <path
        d="M6 25.0117C2.68509 25.0117 -0.0117188 22.3149 -0.0117188 19C-0.0117188 15.6851 2.68509 12.9883 6 12.9883C9.31491 12.9883 12.0117 15.6851 12.0117 19C12.0117 22.3149 9.31491 25.0117 6 25.0117Z"
        fill="#FE0050" />
    <path
        d="M6 12.9883V25.0117C9.31491 25.0117 12.0117 22.3149 12.0117 19C12.0117 15.6851 9.31491 12.9883 6 12.9883Z"
        fill="#E10555" />
    <path
        d="M6 20.1132C5.71501 20.1132 5.43002 20.0045 5.21288 19.7871C4.778 19.3525 4.778 18.6474 5.21288 18.2128L13.3998 10.0259C13.8344 9.59099 14.5395 9.59099 14.9741 10.0259C15.409 10.4604 15.409 11.1652 14.9741 11.6001L6.78712 19.7871C6.56998 20.0045 6.28499 20.1132 6 20.1132Z"
        fill="#2D2D55" />
    <path
        d="M14.974 10.0259L5.2128 19.7871C5.42995 20.0045 5.71494 20.1133 5.99992 20.1133C6.28491 20.1133 6.5699 20.0045 6.78705 19.7871L14.974 11.6001C15.4089 11.1655 15.4089 10.4605 14.974 10.0259Z"
        fill="#0A0A48" />
    <path
        d="M18.543 12.2938C18.512 12.2938 18.4807 12.2924 18.4494 12.29L14.0937 11.9227C13.5527 11.8769 13.1233 11.4478 13.0778 10.9068L12.7102 6.55084C12.6826 6.2241 12.8006 5.902 13.0326 5.67007L17.7556 0.947033C18.062 0.640591 18.5184 0.5397 18.9254 0.688717C19.3322 0.837445 19.6157 1.20883 19.6522 1.64051L19.9404 5.05951L23.3597 5.34797C23.7914 5.3845 24.1628 5.66804 24.3118 6.07508C24.4605 6.48184 24.3596 6.93817 24.0532 7.24461L19.3301 11.9676C19.1205 12.1773 18.837 12.2938 18.543 12.2938Z"
        fill="#2E5A7A" />
    <path
        d="M23.3597 5.34779L19.9407 5.05933L13.3998 11.6001C13.5805 11.7808 13.8228 11.8996 14.0933 11.9225L18.4493 12.2899C18.4806 12.2922 18.5117 12.2936 18.543 12.2936C18.8369 12.2936 19.1205 12.1771 19.3301 11.9675L24.0531 7.24443C24.3596 6.93799 24.4605 6.48166 24.3117 6.07462C24.1627 5.66786 23.7913 5.38432 23.3597 5.34779Z"
        fill="#2E5A7A" />
</svg>
