<svg fill="none" height="39" viewBox="0 0 22 39" width="22" xmlns="http://www.w3.org/2000/svg">
    <path
        d="M9.5 29.8594L7.21484 34.4297L9.5 39C12.0241 39 14.0703 36.9538 14.0703 34.4297C14.0703 31.9056 12.0241 29.8594 9.5 29.8594Z"
        fill="#9467A6" />
    <path
        d="M4.92969 34.4297C4.92969 36.9538 6.97589 39 9.5 39V29.8594C6.97589 29.8594 4.92969 31.9056 4.92969 34.4297Z"
        fill="#9467A6" />
    <path
        d="M9.5 0L4.92969 4.57031L9.5 9.14062C11.0121 9.14062 12.2422 10.3707 12.2422 11.8828C12.2422 12.6886 11.8885 13.4512 11.2718 13.9753L9.5 15.4816L6.45312 21.5279L9.5 27.5742H14.0703V23.5936L17.1915 20.94C19.8551 18.6767 21.3828 15.3755 21.3828 11.8828C21.3828 5.33058 16.0522 0 9.5 0V0Z"
        fill="#9467A6" />
    <path d="M4.92969 19.3674V27.5743H9.5V15.4817L4.92969 19.3674Z" fill="#9467A6" />
    <path
        d="M-2.38281 11.8828V13.0254H6.75781V11.8828C6.75781 10.3707 7.98791 9.14062 9.5 9.14062V0C2.94777 0 -2.38281 5.33058 -2.38281 11.8828Z"
        fill="#9467A6" />
</svg>
