<svg fill="none" height="39" viewBox="0 0 26 39" width="26" xmlns="http://www.w3.org/2000/svg">
    <g clip-path="url(#clip0)" opacity="0.42">
        <path
            d="M6.5 0.228516C5.86899 0.228516 5.35742 0.740086 5.35742 1.37109V5.02734C5.35742 5.65835 5.86899 6.16992 6.5 6.16992C7.13101 6.16992 7.64258 5.65835 7.64258 5.02734V1.37109C7.64258 0.740086 7.13101 0.228516 6.5 0.228516Z"
            fill="#26879C" />
        <path
            d="M9.31836 0H3.68164C3.05063 0 2.53906 0.51157 2.53906 1.14258C2.53906 1.77359 3.05063 2.28516 3.68164 2.28516H9.31836C9.94937 2.28516 10.4609 1.77359 10.4609 1.14258C10.4609 0.51157 9.94937 0 9.31836 0Z"
            fill="#DE513C" />
        <path
            d="M6.5 0H3.68164C3.05063 0 2.53906 0.51157 2.53906 1.14258C2.53906 1.77359 3.05063 2.28516 3.68164 2.28516H6.5V0Z"
            fill="#FC6249" />
        <path
            d="M18.889 9.0352C15.5799 5.71929 11.1801 3.89307 6.49998 3.89307C1.81991 3.89307 -2.57993 5.71929 -5.88899 9.0352C-9.19744 12.3505 -11.0195 16.7583 -11.0195 21.4466C-11.0195 26.1348 -9.19744 30.5426 -5.88899 33.8579C-2.57993 37.1739 1.81991 39.0001 6.49998 39.0001C11.1801 39.0001 15.5799 37.1739 18.889 33.8579C22.1974 30.5426 24.0194 26.1348 24.0194 21.4466C24.0194 16.7583 22.1974 12.3505 18.889 9.0352Z"
            fill="#35608A" />
        <path
            d="M6.49998 3.89307C1.81991 3.89307 -2.57993 5.71929 -5.88899 9.0352C-9.19744 12.3505 -11.0195 16.7583 -11.0195 21.4466C-11.0195 26.1348 -9.19744 30.5426 -5.88899 33.8579C-2.57993 37.1739 1.81991 39.0001 6.49998 39.0001V3.89307Z"
            fill="#107BE5" />
        <path
            d="M6.50004 8.26758C-0.752895 8.26758 -6.65363 14.1796 -6.65363 21.4465C-6.65363 28.7133 -0.752895 34.6254 6.50004 34.6254C13.753 34.6254 19.6537 28.7133 19.6537 21.4465C19.6537 14.1796 13.753 8.26758 6.50004 8.26758Z"
            fill="#96D1D9" />
        <path
            d="M6.50004 8.26758C-0.752896 8.26758 -6.65363 14.1796 -6.65363 21.4465C-6.65363 28.7133 -0.752896 34.6254 6.50004 34.6254V8.26758Z"
            fill="#F4F2E6" />
        <path
            d="M6.5 11.1216C7.13101 11.1216 7.64258 10.61 7.64258 9.97901V8.31785C7.26591 8.28525 6.88497 8.26758 6.5 8.26758C6.11503 8.26758 5.73409 8.28525 5.35742 8.31785V9.97901C5.35742 10.61 5.86899 11.1216 6.5 11.1216Z"
            fill="#105C6E" />
        <path
            d="M6.5 31.7712C5.86899 31.7712 5.35742 32.2828 5.35742 32.9138V34.575C5.73409 34.6076 6.11503 34.6253 6.5 34.6253C6.88497 34.6253 7.26591 34.6076 7.64258 34.575V32.9138C7.64258 32.2828 7.13101 31.7712 6.5 31.7712Z"
            fill="#105C6E" />
        <path
            d="M19.6037 20.304H17.9675C17.3365 20.304 16.8249 20.8155 16.8249 21.4465C16.8249 22.0775 17.3365 22.5891 17.9675 22.5891H19.6037C19.6362 22.2124 19.6537 21.8315 19.6537 21.4465C19.6537 21.0616 19.6362 20.6806 19.6037 20.304Z"
            fill="#105C6E" />
        <path
            d="M9.3185 20.7871H7.70655V16.166C7.70655 15.535 7.19498 15.0234 6.56397 15.0234C5.93296 15.0234 5.42139 15.535 5.42139 16.166V21.9297C5.42139 22.5607 5.93296 23.0723 6.56397 23.0723H9.3185C9.94951 23.0723 10.4611 22.5607 10.4611 21.9297C10.4611 21.2987 9.94951 20.7871 9.3185 20.7871Z"
            fill="#F25C5C" />
    </g>
    <defs>
        <clipPath id="clip0">
            <rect fill="white" height="39" transform="translate(-13)" width="39" />
        </clipPath>
    </defs>
</svg>
